# xmcd CD database file
#
# Track frame offsets:
#	187
#	20692
#	41442
#	61515
#	77585
#	98730
#	119980
#	139330
#	159700
#	179467
#
# Disc length: 2583 seconds
#
# Revision: 0
# Processed by: cddbd v1.5PL3 Copyright (c) Steve Scherf et al.
# Submitted via: CDex 1.50beta8
#
DISCID=840a150a
DTITLE=タイロン橋本 - Love Always
DYEAR=1994
DGENRE=Vocal
TTITLE0=Back to the basics
TTITLE1=Island lady
TTITLE2=Sailing in the ocean
TTITLE3=Wild lily
TTITLE4=What cha gonna do?
TTITLE5=Where do you go?
TTITLE6=Acrylic night
TTITLE7=Mysterious eyes
TTITLE8=Minimum daily allowance
TTITLE9=Stay gold
EXTD=YEAR: 1994
EXTT0=
EXTT1=
EXTT2=
EXTT3=
EXTT4=
EXTT5=
EXTT6=
EXTT7=
EXTT8=
EXTT9=
PLAYORDER=
